<?xml version="1.0" encoding="UTF-8" standalone="no"?>
<svg
   xmlns:dc="http://purl.org/dc/elements/1.1/"
   xmlns:cc="http://creativecommons.org/ns#"
   xmlns:rdf="http://www.w3.org/1999/02/22-rdf-syntax-ns#"
   xmlns:svg="http://www.w3.org/2000/svg"
   xmlns="http://www.w3.org/2000/svg"
   xmlns:sodipodi="http://sodipodi.sourceforge.net/DTD/sodipodi-0.dtd"
   xmlns:inkscape="http://www.inkscape.org/namespaces/inkscape"
   id="Capa_1"
   data-name="Capa 1"
   viewBox="0 0 411.03464 229.8364"
   version="1.1"
   sodipodi:docname="hackchiapas.svg"
   width="411.03464"
   height="229.8364"
   inkscape:version="0.92.2 5c3e80d, 2017-08-06">
  <metadata
     id="metadata55">
    <rdf:RDF>
      <cc:Work
         rdf:about="">
        <dc:format>image/svg+xml</dc:format>
        <dc:type
           rdf:resource="http://purl.org/dc/dcmitype/StillImage" />
        <dc:title>logotipo svg</dc:title>
      </cc:Work>
    </rdf:RDF>
  </metadata>
  <sodipodi:namedview
     pagecolor="#ffffff"
     bordercolor="#666666"
     borderopacity="1"
     objecttolerance="10"
     gridtolerance="10"
     guidetolerance="10"
     inkscape:pageopacity="0"
     inkscape:pageshadow="2"
     inkscape:window-width="1366"
     inkscape:window-height="716"
     id="namedview53"
     showgrid="false"
     inkscape:zoom="0.56190476"
     inkscape:cx="19.648469"
     inkscape:cy="114.92639"
     inkscape:window-x="0"
     inkscape:window-y="0"
     inkscape:window-maximized="1"
     inkscape:current-layer="Capa_1" />
  <defs
     id="defs4">
    <style
       id="style2">.cls-1{fill:#283238;}.cls-2{fill:#fff;}.cls-3{fill:#f3e600;}</style>
  </defs>
  <title
     id="title6">logotipo svg</title>
  <path
     class="cls-1"
     d="m 81.922876,226.64 a 14,14 0 0 1 -9.93,-4.11 l -11.08,-11.08 h -11 a 14.07,14.07 0 0 1 -13.79,-11.54 c -0.27,-0.2 -0.53,-0.42 -0.78,-0.64 l -3.47,-3.08 a 14.12,14.12 0 0 1 -3.2,-4.13 14.18,14.18 0 0 1 -5.34,-5.36 14,14 0 0 1 -12.62,-12.79 119,119 0 0 1 7.74,-53.84 q 0.22,-0.55 0.48,-1.09 l -0.12,-0.29 a 14,14 0 0 1 3,-15.31 l 6.94,-6.939997 a 17.13,17.13 0 0 1 -2,0.12 16.85,16.85 0 0 1 -16.8399998,-16.79 17.05,17.05 0 0 1 0.1899998,-2.56 16.71,16.71 0 0 1 -2.4399998,-8.74 17.06,17.06 0 0 1 0.19,-2.56 16.7,16.7 0 0 1 -2.44,-8.74 17,17 0 0 1 0.19,-2.56 16.87,16.87 0 0 1 2.52,-20.7 l 19.2599998,-19.26 a 16.84,16.84 0 0 1 15.71,-4.5 l 20.65,4.77 a 16.85,16.85 0 0 1 28,-6.8599995 L 110.21288,26.530003 a 14.06,14.06 0 0 1 16.4,8.7 14,14 0 0 1 8.48,-2.87 h 6.07 a 14,14 0 0 1 7.25,2 14,14 0 0 1 7.24,-2 h 6.07 a 14,14 0 0 1 13,8.77 23.27,23.27 0 0 1 2.74,-0.16 22.83,22.83 0 0 1 6.08,0.8 14.07,14.07 0 0 1 2.83,-0.29 h 4.61 a 13.87,13.87 0 0 1 7,1.86 27,27 0 0 1 11.21,-2.38 c 1,0 2,0 3,0.13 v 0 a 14.11,14.11 0 0 1 13.74,-11.13 h 6 a 14.07,14.07 0 0 1 13.82,11.52 h 0.19 a 14,14 0 0 1 10,24 l -5.43,5.43 3.28,7 a 13.87,13.87 0 0 1 1,3.2 h 9.18 a 14,14 0 0 1 9.59,3.79 14,14 0 0 1 9.59,-3.79 h 11.93 c 8.82,0 16.09,2.29 21.61,6.81 a 25.72,25.72 0 0 1 2.8,2.67 l 0.92,-1.81 a 14,14 0 0 1 12.52,-7.67 h 16.08 a 14,14 0 0 1 11.29,5.69 29.21,29.21 0 0 1 5.11,-3.13 33.47,33.47 0 0 1 14.64,-3.23 41.64,41.64 0 0 1 20.61,5.21 14.13,14.13 0 0 1 5.92,18.059997 l -4.32,9.49 a 14.14,14.14 0 0 1 -2,3.15 27.92,27.92 0 0 1 2.25,11.2 c 0,11.27 -5.28,18.08 -9.71,21.8 -5.72,4.8 -13.17,7.24 -22.14,7.24 a 41.46,41.46 0 0 1 -10.05,-1.2 c -0.68,-0.17 -1.36,-0.37 -2.09,-0.6 a 14.07,14.07 0 0 1 -5.6,1.17 h -12.14 a 14.12,14.12 0 0 1 -9.27,-3.55 14.11,14.11 0 0 1 -9.32,3.55 h -13 a 14.14,14.14 0 0 1 -11.68,-6.27 14.1,14.1 0 0 1 -11.72,6.22 h -12.5 a 13.79,13.79 0 0 1 -2.69,-0.27 13.78,13.78 0 0 1 -2.68,0.27 h -12.18 a 14.12,14.12 0 0 1 -9.32,-3.55 14.11,14.11 0 0 1 -9.32,3.55 h -13 a 13.93,13.93 0 0 1 -2.84,-0.29 14,14 0 0 1 -2.85,0.29 h -12.67 a 14,14 0 0 1 -5.26,-1 14.06,14.06 0 0 1 -5.29,1 h -12.5 a 14.05,14.05 0 0 1 -5.56,-1.15 14,14 0 0 1 -5.62,1.15 h -12.5 a 13.91,13.91 0 0 1 -6.62,-1.67 49.27,49.27 0 0 1 -15.06,2.31 q -1.25,0 -2.48,-0.08 l 0.21,0.59 a 16.8,16.8 0 0 1 -2,15.07 13.94,13.94 0 0 1 2.93,8.6 v 7.2 a 14.06,14.06 0 0 1 -14,14 h -11 a 14,14 0 0 1 -2.91,4.24 l -16.230004,16.36 a 14,14 0 0 1 -9.93,4.11 z"
     id="path8"
     inkscape:connector-curvature="0"
     style="fill:#283238" />
  <path
     class="cls-2"
     d="m 79.812876,6.3500035 a 13.59,13.59 0 0 1 9.67,3.9999995 l 19.830004,19.83 a 10.87,10.87 0 0 1 15,10.06 v 0.67 l 0.92,0.92 a 10.87,10.87 0 0 1 9.83,-6.25 h 6.07 a 10.83,10.83 0 0 1 7.24,2.76 10.86,10.86 0 0 1 7.24,-2.76 h 6.07 a 10.84,10.84 0 0 1 10.74,9.23 20.83,20.83 0 0 1 5,-0.62 19.36,19.36 0 0 1 6,0.91 10.86,10.86 0 0 1 2.92,-0.4 h 4.61 a 10.81,10.81 0 0 1 6.74,2.35 23.71,23.71 0 0 1 11.46,-2.86 30.9,30.9 0 0 1 5.52,0.5 l 0.61,-2.89 a 10.87,10.87 0 0 1 10.64,-8.62 h 6 a 10.87,10.87 0 0 1 10.87,10.87 q 0,0.33 0,0.65 h 3.15 a 10.87,10.87 0 0 1 7.7,18.54 l -7,7 4.22,9 a 10.85,10.85 0 0 1 1,5 h 12.1 a 10.87,10.87 0 0 1 9.59,5.77 10.87,10.87 0 0 1 9.59,-5.77 h 11.93 c 8.07,0 14.67,2 19.6,6.09 a 22.53,22.53 0 0 1 5.29,6.27 l 3.27,-6.42 a 10.87,10.87 0 0 1 9.69,-5.94 h 16.08 a 10.87,10.87 0 0 1 10.36,7.6 25.27,25.27 0 0 1 7.42,-5.36 30.33,30.33 0 0 1 13.27,-2.91 38.5,38.5 0 0 1 19.06,4.81 10.87,10.87 0 0 1 4.58,13.999997 l -4.32,9.5 a 10.87,10.87 0 0 1 -2.92,3.84 24.4,24.4 0 0 1 2.9,11.8 c 0,10.05 -4.67,16.08 -8.58,19.37 -5.13,4.31 -11.89,6.5 -20.1,6.5 a 38.31,38.31 0 0 1 -9.28,-1.11 31.24,31.24 0 0 1 -3.08,-1 10.87,10.87 0 0 1 -5.38,1.43 h -12.15 a 10.87,10.87 0 0 1 -9.32,-5.27 10.87,10.87 0 0 1 -9.32,5.27 h -13 a 10.87,10.87 0 0 1 -9.69,-15.8 l 0.21,-0.42 c -0.58,0.11 -1.16,0.22 -1.75,0.3 l -1.49,7.25 a 10.87,10.87 0 0 1 -10.65,8.68 h -12.5 a 10.85,10.85 0 0 1 -2.69,-0.35 10.84,10.84 0 0 1 -2.68,0.35 h -12.16 a 10.87,10.87 0 0 1 -9.32,-5.27 10.87,10.87 0 0 1 -9.32,5.27 h -13 a 10.86,10.86 0 0 1 -2.84,-0.38 10.86,10.86 0 0 1 -2.85,0.38 h -12.67 a 10.85,10.85 0 0 1 -5.23,-1.31 10.84,10.84 0 0 1 -5.29,1.38 h -12.5 a 10.87,10.87 0 0 1 -5.56,-1.53 10.84,10.84 0 0 1 -5.56,1.53 h -12.5 a 10.86,10.86 0 0 1 -6.23,-2 45.81,45.81 0 0 1 -15.45,2.62 34.05,34.05 0 0 1 -7.18,-0.73 l 1.92,5.47 a 13.63,13.63 0 0 1 -3.2,14.15 l 0.78,0.78 a 10.87,10.87 0 0 1 3.18,7.69 v 7.2 a 10.87,10.87 0 0 1 -10.87,10.87 h -12.2 q -0.52,0 -1,0 a 10.87,10.87 0 0 1 -2.9,5.22 l -16.350004,16.23 a 10.87,10.87 0 0 1 -15.38,0 l -12,-12 h -12.28 a 10.87,10.87 0 0 1 -10.85,-10.18 10.87,10.87 0 0 1 -1.64,-1.2 l -3.47,-3.08 a 10.85,10.85 0 0 1 -2.88,-4.08 10.88,10.88 0 0 1 -5.72,-6.14 h -0.68 a 10.87,10.87 0 0 1 -10.83,-9.92 115.85,115.85 0 0 1 7.53,-52.41 10.87,10.87 0 0 1 1.11,-2.17 10.84,10.84 0 0 1 1.54,-13.43 l 13,-12.999997 a 10.86,10.86 0 0 1 2.89,-5.39 10.83,10.83 0 0 1 -0.23,-1.18 l -3.3,3.3 a 13.68,13.68 0 0 1 -23.35,-9.67 13.77,13.77 0 0 1 0.38,-3.24 13.58,13.58 0 0 1 -2.63,-8.06 13.78,13.78 0 0 1 0.38,-3.24 13.57,13.57 0 0 1 -2.6299998,-8.06 13.78,13.78 0 0 1 0.38,-3.24 13.68,13.68 0 0 1 1.3799998,-17.73 l 19.3,-19.26 a 13.67,13.67 0 0 1 12.75,-3.65 l 23.82,5.51 a 13.68,13.68 0 0 1 13.62,-12.4199995 m 0,-6.34 a 20,20 0 0 0 -18,11.2699995 l -18,-4.1599995 a 20,20 0 0 0 -18.66,5.3499995 l -19.2799998,19.25 a 20,20 0 0 0 -3.53,23.55 q -0.09,0.95 -0.09,1.9 a 19.87,19.87 0 0 0 2.33,9.4 q -0.09,0.95 -0.09,1.9 a 19.87,19.87 0 0 0 2.33,9.4 q -0.09,0.95 -0.09,1.9 a 20,20 0 0 0 14.9199998,19.37 l -2.05,2.049997 a 17.16,17.16 0 0 0 -4.09,17.72 v 0 a 122.19,122.19 0 0 0 -7.9999998,55.33 17.11,17.11 0 0 0 13.8899998,15.4 17.39,17.39 0 0 0 4.87,4.69 17.3,17.3 0 0 0 3.46,4.23 l 3.47,3.08 v 0 a 17.25,17.25 0 0 0 16.68,13 h 9.65 l 10.15,10.15 a 17.21,17.21 0 0 0 24.35,0 l 16.280004,-16.28 a 17.21,17.21 0 0 0 2.59,-3.31 h 9.07 a 17.23,17.23 0 0 0 17.21,-17.21 v -7.2 a 17.11,17.11 0 0 0 -2.35,-8.69 q 0.19,-0.36 0.37,-0.72 a 19.88,19.88 0 0 0 1.77,-11.62 52.35,52.35 0 0 0 13.16,-2.06 17,17 0 0 0 6.88,1.45 h 12.5 a 17.22,17.22 0 0 0 5.56,-0.92 17.22,17.22 0 0 0 5.56,0.92 h 12.5 a 17.23,17.23 0 0 0 5.29,-0.84 17.1,17.1 0 0 0 5.26,0.84 h 12.69 a 17.18,17.18 0 0 0 2.85,-0.24 17.08,17.08 0 0 0 2.84,0.24 h 13 a 17.25,17.25 0 0 0 9.32,-2.76 17.25,17.25 0 0 0 9.32,2.76 h 12.18 a 16.75,16.75 0 0 0 2.68,-0.22 16.81,16.81 0 0 0 2.69,0.22 h 12.5 a 17.22,17.22 0 0 0 11.76,-4.62 17.33,17.33 0 0 0 11.69,4.59 h 13 a 17.25,17.25 0 0 0 9.32,-2.76 17.25,17.25 0 0 0 9.32,2.76 h 12.18 a 17.23,17.23 0 0 0 5.72,-1 l 1.2,0.32 a 44.64,44.64 0 0 0 10.82,1.3 c 9.74,0 17.88,-2.69 24.18,-8 4.95,-4.16 10.84,-11.73 10.84,-24.23 a 31.4,31.4 0 0 0 -1.82,-10.71 17.15,17.15 0 0 0 1.27,-2.3 l 4.32,-9.5 a 17.32,17.32 0 0 0 -7.32,-22.089997 44.77,44.77 0 0 0 -22.16,-5.62 36.62,36.62 0 0 0 -16,3.54 33,33 0 0 0 -3.24,1.79 17.15,17.15 0 0 0 -11.8,-4.71 h -16.08 a 17.13,17.13 0 0 0 -14.23,7.53 c -6.1,-5 -14,-7.53 -23.62,-7.53 h -11.93 a 17.18,17.18 0 0 0 -9.59,2.92 17.17,17.17 0 0 0 -9.59,-2.92 h -6.79 q -0.26,-0.7 -0.57,-1.38 l -2.34,-5 3.86,-3.88 a 17.22,17.22 0 0 0 -9.9,-29.21 17.24,17.24 0 0 0 -16.3,-11.67 h -6 a 17.31,17.31 0 0 0 -16.06,11 h -0.71 a 30.27,30.27 0 0 0 -11.11,2.14 17.23,17.23 0 0 0 -7.11,-1.54 h -4.61 a 17.24,17.24 0 0 0 -2.71,0.21 26.2,26.2 0 0 0 -6.2,-0.73 h -0.84 a 17.18,17.18 0 0 0 -14.91,-8.62 h -6.07 a 17.2,17.2 0 0 0 -7.24,1.6 17.2,17.2 0 0 0 -7.24,-1.6 h -6.07 a 17.13,17.13 0 0 0 -7.2,1.59 17.25,17.25 0 0 0 -16.61,-7.67 L 93.972876,5.9100035 A 19.89,19.89 0 0 0 79.812876,3.4953372e-6 Z"
     id="path10"
     inkscape:connector-curvature="0"
     style="fill:#ffffff" />
  <path
     class="cls-3"
     d="m 100.04288,169.97 a 2.81,2.81 0 0 1 -2.650004,-1.88 l -6.58,-18.79 a 2.8037341,2.8037341 0 0 1 5.29,-1.86 l 6.590004,18.79 a 2.81,2.81 0 0 1 -2.65,3.73 z"
     id="path12"
     inkscape:connector-curvature="0"
     style="fill:#f3e600" />
  <path
     class="cls-3"
     d="m 110.03288,167.73 a 2.81,2.81 0 0 1 -2.65,-1.88 l -6.59,-18.79 a 2.8037341,2.8037341 0 0 1 5.29,-1.86 l 6.59,18.79 a 2.81,2.81 0 0 1 -2.65,3.73 z"
     id="path14"
     inkscape:connector-curvature="0"
     style="fill:#f3e600" />
  <path
     class="cls-3"
     d="m 119.21288,165.49 a 2.81,2.81 0 0 1 -2.65,-1.88 l -6.59,-18.79 a 2.8037341,2.8037341 0 0 1 5.29,-1.86 l 6.59,18.79 a 2.81,2.81 0 0 1 -2.65,3.73 z"
     id="path16"
     inkscape:connector-curvature="0"
     style="fill:#f3e600" />
  <polygon
     class="cls-3"
     points="101.68,291.41 101.68,282.45 107.19,276.94 113.31,283.06 125.51,283.06 125.51,275.86 115.48,265.83 96.9,271.51 73,295.28 85.41,307.69 "
     id="polygon18"
     style="fill:#f3e600"
     transform="translate(-3.4871238,-95.089997)" />
  <polygon
     class="cls-3"
     points="111.65,210.42 111.65,194.53 111.39,194.53 111.39,210.42 105.6,215.47 105.85,215.47 "
     id="polygon20"
     style="fill:#f3e600"
     transform="translate(-3.4871238,-95.089997)" />
  <polygon
     class="cls-3"
     points="66.6,213.51 66.6,232.39 74.69,232.47 78.61,215.47 105.41,215.47 105.6,215.47 111.39,210.42 111.39,194.53 110.65,194.53 49.2,194.53 35.27,208.46 49.95,208.46 59.3,208.46 59.3,213.6 "
     id="polygon22"
     style="fill:#f3e600"
     transform="translate(-3.4871238,-95.089997)" />
  <circle
     class="cls-3"
     cx="107.90288"
     cy="87.100006"
     r="6.0999999"
     id="circle24"
     style="fill:#f3e600" />
  <path
     class="cls-3"
     d="m 113.44288,45.400003 v -5.17 l -4.72,4.72 -26.920004,-26.91 a 2.8284271,2.8284271 0 0 0 -4,4 l 13.84,13.84 -51.72,-11.97 a 2.8,2.8 0 0 0 -2.61,0.75 l -19.26,19.25 a 2.8284271,2.8284271 0 1 0 4,4 l 18.16,-18.16 46.44,12.16 -4.42,3.54 -40,-10.21 a 2.81,2.81 0 0 0 -2.72,0.67 l -19.22,19.28 a 2.8284271,2.8284271 0 1 0 4,4 l 18.13,-18.13 34.35,8.77 -5.63,4.5 -26.54,-7.77 a 2.8,2.8 0 0 0 -2.77,0.71 l -19.32,19.22 a 2.8284271,2.8284271 0 1 0 4,4 l 18.08,-18.08 21.17,6.2 -5,4 -13.85,-4.69 a 2.81,2.81 0 0 0 -2.88,0.67 l -19.25,19.2 a 2.8284271,2.8284271 0 1 0 4,4 l 18,-18 8.8,3 v 0 12.34 h -5.07 v 5.61 l 3.74,3.74 -6.55,6.43 h 54.360004 a 10.13,10.13 0 0 1 -3.740004,-9.82 c 1.18,-5.56 7.590004,-9.35 13.700004,-7.2 l 5.24,-14.4 7.16,-7.16 z"
     id="path26"
     inkscape:connector-curvature="0"
     style="fill:#f3e600" />
  <path
     class="cls-3"
     d="M 101.92288,124.91 H 78.012876 l -3.18,15.23 -0.37,1.77 h -14.73 V 123 h -8.41 v -5.14 h -8.34 l -11.47,7.38 a 105,105 0 0 0 -6.82,47.49 h 10.89 v 7.1 l 7.26,2.43 -1.65,3.42 3.47,3.08 5.28,-1.45 v 10.1 h 14.21 l 13.14,-13.14 10.33,-10.36 2.71,-11.87 -5.39,-17.58 17.000004,-4.86 z m -58.330004,26 h -6.55 l -3.93,-5.11 6.54,-3.11 14,3.11 z"
     id="path28"
     inkscape:connector-curvature="0"
     style="fill:#f3e600" />
  <path
     class="cls-3"
     d="m 153.79288,83.910003 h -6.09 l 3.58,-16.87 h -14.49 l -3.56,16.87 h -6.07 l 7.91,-37.43 h 6.07 l -3.25,15.31 h 14.49 l 3.25,-15.31 h 6.07 z"
     id="path30"
     inkscape:connector-curvature="0"
     style="fill:#f3e600" />
  <path
     class="cls-3"
     d="m 171.71288,84.400003 a 7,7 0 0 1 -5.71,-2.6 q -2.1,-2.6 -2.1,-7.31 a 26.11,26.11 0 0 1 1.78,-9.68 17.46,17.46 0 0 1 4.9,-7.13 10.43,10.43 0 0 1 6.86,-2.62 7.27,7.27 0 0 1 7.07,4.55 h 0.26 l 1.59,-4 h 4.61 l -6,28.32 h -4.66 l 0.54,-4.51 h -0.15 q -4.1,4.98 -8.99,4.98 z m 2.2,-4.86 a 5.93,5.93 0 0 0 4.12,-2 15,15 0 0 0 3.33,-5.31 19.74,19.74 0 0 0 1.31,-7.27 5.29,5.29 0 0 0 -1.2,-3.62 4,4 0 0 0 -3.15,-1.37 5.69,5.69 0 0 0 -4.1,2 14,14 0 0 0 -3.07,5.36 21.7,21.7 0 0 0 -1.15,7 6.17,6.17 0 0 0 1,3.9 3.49,3.49 0 0 0 2.91,1.3 z"
     id="path32"
     inkscape:connector-curvature="0"
     style="fill:#f3e600" />
  <path
     class="cls-3"
     d="m 204.81288,84.400003 q -5,0 -7.78,-2.71 -2.78,-2.71 -2.76,-7.78 a 24,24 0 0 1 1.88,-9.64 15.91,15.91 0 0 1 5.29,-6.78 12.93,12.93 0 0 1 7.73,-2.45 18,18 0 0 1 7.6,1.56 l -1.79,4.71 a 14.38,14.38 0 0 0 -5.66,-1.36 q -3.84,0 -6.4,3.93 a 17.44,17.44 0 0 0 -2.56,9.72 6.18,6.18 0 0 0 1.43,4.38 5.16,5.16 0 0 0 4,1.54 10.91,10.91 0 0 0 3.55,-0.56 27.84,27.84 0 0 0 3.32,-1.38 v 5 a 17,17 0 0 1 -7.85,1.82 z"
     id="path34"
     inkscape:connector-curvature="0"
     style="fill:#f3e600" />
  <path
     class="cls-3"
     d="m 238.99288,55.570003 h 7 l -12.37,12.42 7.45,15.9 h -6.71 l -5.35,-12.06 -3.5,2.45 -2,9.6 h -6 l 8.45,-39.84 h 6 q -3.46,16.05 -4.08,18.68 -0.62,2.63 -1.52,5.8 h 0.1 z"
     id="path36"
     inkscape:connector-curvature="0"
     style="fill:#f3e600" />
  <path
     class="cls-2"
     d="m 144.93288,104.86 a 9.11,9.11 0 0 0 -6.23,2.49 16.58,16.58 0 0 0 -4.36,6.87 27.75,27.75 0 0 0 -1.58,9.5 q 0,4.28 1.79,6.39 a 6.37,6.37 0 0 0 5.15,2.11 22.84,22.84 0 0 0 5.37,-0.66 41.66,41.66 0 0 0 6.39,-2.22 v 10.33 a 34.31,34.31 0 0 1 -14.07,2.88 q -8.31,0 -12.8,-4.75 -4.49,-4.75 -4.49,-13.44 a 37.08,37.08 0 0 1 3.24,-15.6 24.43,24.43 0 0 1 8.82,-10.709997 23,23 0 0 1 12.77,-3.61 29.08,29.08 0 0 1 15.38,4.19 l -4.73,9.749997 a 31.54,31.54 0 0 0 -5.47,-2.64 15.47,15.47 0 0 0 -5.18,-0.88 z"
     id="path38"
     inkscape:connector-curvature="0"
     style="fill:#ffffff" />
  <path
     class="cls-2"
     d="m 195.19288,141.91 h -12.5 l 4,-19.05 h -11.07 l -4.06,19.05 h -12.5 l 9.88,-46.739997 h 12.5 l -3.58,17.329997 h 11.13 l 3.58,-17.329997 h 12.53 z"
     id="path40"
     inkscape:connector-curvature="0"
     style="fill:#ffffff" />
  <path
     class="cls-2"
     d="m 205.74288,141.91 9.88,-46.739997 h 12.69 l -9.88,46.739997 z"
     id="path42"
     inkscape:connector-curvature="0"
     style="fill:#ffffff" />
  <path
     class="cls-2"
     d="m 255.42288,133.15 h -14.32 l -4,8.76 h -13 l 23.79,-46.739997 h 16.08 l 3.95,46.739997 h -12.18 z m -9.75,-10 h 9.37 l -0.53,-13.53 -0.06,-2.75 q 0,-2.4 0.13,-4.19 a 35.11,35.11 0 0 1 -1.95,5.31 z"
     id="path44"
     inkscape:connector-curvature="0"
     style="fill:#ffffff" />
  <path
     class="cls-2"
     d="m 312.23288,109.17 q 0,8.06 -5.48,12.64 -5.48,4.58 -15,4.59 h -2.75 l -3.21,15.51 h -12.5 l 9.88,-46.739997 h 11.93 q 8.28,0 12.71,3.63 4.43,3.629997 4.42,10.369997 z m -21,7 h 2 a 6.21,6.21 0 0 0 4.7,-1.87 6.58,6.58 0 0 0 1.79,-4.75 4.1,4.1 0 0 0 -1.15,-3 4.27,4.27 0 0 0 -3.16,-1.15 h -1.9 z"
     id="path46"
     inkscape:connector-curvature="0"
     style="fill:#ffffff" />
  <path
     class="cls-2"
     d="m 340.51288,133.15 h -14.37 l -4,8.76 h -13 l 23.79,-46.739997 h 16.08 l 3.95,46.739997 h -12.18 z m -9.75,-10 h 9.37 l -0.62,-13.53 v -2.71 q 0,-2.4 0.13,-4.19 a 35.11,35.11 0 0 1 -1.95,5.31 z"
     id="path48"
     inkscape:connector-curvature="0"
     style="fill:#ffffff" />
  <path
     class="cls-2"
     d="m 388.51288,127.55 q 0,7.1 -4.7,11 -4.7,3.9 -13.11,3.95 a 27.32,27.32 0 0 1 -6.65,-0.78 17.31,17.31 0 0 1 -5.4,-2.29 v -11.14 a 28,28 0 0 0 6.15,2.85 20.17,20.17 0 0 0 6.28,1.15 5.56,5.56 0 0 0 3.58,-1 3.42,3.42 0 0 0 1.21,-2.81 3.51,3.51 0 0 0 -0.36,-1.57 6.72,6.72 0 0 0 -1.09,-1.5 q -0.7,-0.75 -3.77,-3.31 a 20.87,20.87 0 0 1 -5.43,-6.14 14.2,14.2 0 0 1 -1.7,-6.87 13.7,13.7 0 0 1 8,-12.709997 19.47,19.47 0 0 1 8.55,-1.84 27.64,27.64 0 0 1 13.75,3.37 l -4.31,9.499997 q -5.47,-2.81 -9.3,-2.81 a 4.88,4.88 0 0 0 -3.15,0.9 3.18,3.18 0 0 0 -1.1,2.62 4.63,4.63 0 0 0 1.07,2.92 23.76,23.76 0 0 0 4.08,3.63 20.45,20.45 0 0 1 5.59,5.85 13.51,13.51 0 0 1 1.81,7.03 z"
     id="path50"
     inkscape:connector-curvature="0"
     style="fill:#ffffff" />
</svg>
